<?xml version="1.0" encoding="UTF-8" standalone="no"?>
<svg
   xmlns:dc="http://purl.org/dc/elements/1.1/"
   xmlns:cc="http://creativecommons.org/ns#"
   xmlns:rdf="http://www.w3.org/1999/02/22-rdf-syntax-ns#"
   xmlns:svg="http://www.w3.org/2000/svg"
   xmlns="http://www.w3.org/2000/svg"
   id="svg851"
   version="1.1"
   viewBox="0 0 183.81482 75.089531"
   height="75.089531mm"
   width="183.81482mm">
  <defs
     id="defs845" />
  <metadata
     id="metadata848">
    <rdf:RDF>
      <cc:Work
         rdf:about="">
        <dc:format>image/svg+xml</dc:format>
        <dc:type
           rdf:resource="http://purl.org/dc/dcmitype/StillImage" />
        <dc:title></dc:title>
      </cc:Work>
    </rdf:RDF>
  </metadata>
  <g
     transform="translate(129.61483,-24.569398)"
     id="layer1">
    <g
       aria-label="Karaoke"
       transform="matrix(0.13026121,0,0,0.13912637,-129.87073,-17.458182)"
       style="font-style:normal;font-weight:normal;font-size:532.33502197px;line-height:1.25;font-family:sans-serif;letter-spacing:0px;word-spacing:0px;fill:#000000;fill-opacity:1;stroke:none;stroke-width:2.77257824"
       id="logo-text">
      <path
         d="m 172.97712,704.55268 q -1.597,6.38802 -1.597,11.71137 0,5.32335 -1.59701,7.98503 -1.06467,3.19401 -4.25868,2.66167 -2.66167,0 -9.58203,-5.32335 -20.76106,-15.43771 -31.40776,-28.21375 -10.11437,-12.77604 -6.92036,-26.61675 1.06467,-13.30838 4.79102,-34.06944 3.72634,-20.76107 9.04969,-45.24848 5.85569,-24.48741 12.77604,-51.10416 6.92036,-26.61675 14.37305,-52.16884 7.45269,-25.55208 14.37304,-47.91015 7.4527,-22.35807 13.84072,-38.86045 7.45269,-19.6964 9.04969,-29.81076 1.59701,-10.64671 -1.597,-14.37305 -2.66168,-3.72635 -10.11437,-1.59701 -6.92035,1.59701 -17.03472,6.38802 -9.58203,4.79102 -21.2934,12.24371 -11.17904,6.92036 -22.89041,13.30838 -28.746088,15.97005 -52.168829,16.50238 -23.422741,0.53234 -39.392792,-9.58203 -15.970051,-10.11436 -23.422741,-27.14909 -7.98502529,-17.03472 -5.3233502,-36.19878 1.0646701,-8.51736 3.1940101,-11.71137 2.1293401,-3.72634 4.7910151,-3.19401 2.12934,0.53234 4.791015,3.72635 2.661675,3.19401 4.258681,7.45269 4.791015,11.71137 17.03472,15.43771 12.776041,3.72635 29.810761,2.66168 17.034721,-1.59701 37.26345,-6.38802 20.22873,-4.79102 40.9898,-10.6467 20.76106,-6.38802 39.92513,-12.24371 19.69639,-5.85568 35.13411,-8.51736 24.48741,-4.25868 39.92512,2.66168 15.43772,6.38802 13.30838,23.95507 -1.59701,9.0497 -7.98503,28.21376 -5.85568,19.16406 -14.90538,45.24848 -8.51736,26.08441 -18.63172,56.95984 -10.11437,30.3431 -20.22873,62.81554 4.25868,-1.06467 7.45269,0 29.81076,-19.16406 56.95984,-43.65148 27.68143,-25.01974 52.16884,-52.16883 25.01974,-27.68142 47.37781,-56.42751 22.89041,-28.74609 43.11914,-56.42751 4.25868,-5.32335 10.11437,0 6.38802,5.32335 11.17903,15.43771 5.32335,9.58203 7.45269,20.76107 2.66168,11.17903 -0.53233,17.03472 -42.05447,56.95985 -94.2233,103.80533 -52.16883,46.84548 -113.9197,81.97959 12.77604,29.27843 29.27843,63.34787 17.03472,34.06944 37.79579,66.00954 21.2934,32.47244 46.31314,59.62153 25.55208,27.68142 54.83051,44.71614 29.27843,17.03472 62.2832,19.69639 33.5371,3.19401 70.80055,-13.30837 4.25869,-1.59701 7.4527,-0.53234 3.72634,1.06467 4.79101,3.19401 1.59701,2.66168 0.53234,5.85569 -1.06467,3.19401 -5.32335,5.32335 -49.50716,29.27842 -91.02929,33.00477 -41.52214,4.25868 -76.12391,-10.11437 -34.60178,-14.37304 -62.81553,-43.11913 -27.68143,-28.21376 -50.0395,-64.41254 -21.82573,-35.66645 -38.32812,-74.5269 -16.50238,-39.39279 -28.74609,-75.05924 -1.06467,1.06467 -4.25868,2.12934 -10.11436,36.73112 -16.50238,70.26822 -6.38803,33.00477 -6.38803,58.55685 z"
         style="font-style:normal;font-variant:normal;font-weight:normal;font-stretch:normal;font-size:532.33502197px;font-family:'Sweet Sensations Personal Use';-inkscape-font-specification:'Sweet Sensations Personal Use, Normal';font-variant-ligatures:normal;font-variant-caps:normal;font-variant-numeric:normal;font-feature-settings:normal;text-align:start;writing-mode:lr-tb;text-anchor:start;fill:#9b5977;fill-opacity:1;stroke-width:2.77257824"
         id="char1" />
      <path
         d="m 488.65221,571.46893 q -0.53233,-4.25868 3.19401,-5.85569 3.72635,-2.12934 9.0497,-2.12934 5.32335,0 10.11436,1.06467 5.32335,0.53234 7.98503,1.06467 7.45269,3.19401 10.11436,8.51736 2.66168,4.79102 2.66168,13.84071 0,10.6467 -2.12934,18.63173 -1.59701,7.98503 -4.79102,17.56706 l -5.32335,17.56705 q -2.66167,12.24371 -2.66167,17.03472 0,4.25868 2.66167,2.66168 3.19401,-2.12934 7.45269,-7.45269 4.79102,-5.85569 10.6467,-13.84071 5.85569,-7.98503 11.71138,-16.50239 h -0.53234 q 11.71137,-21.82574 20.22873,-40.45746 9.0497,-19.16406 13.30838,-29.81076 3.19401,-3.72635 6.92035,-4.25868 3.72635,-1.06467 6.92036,0.53233 3.19401,1.59701 4.79101,5.32335 2.12934,3.72635 1.06467,8.51736 l -3.72634,9.0497 q -4.79102,11.71137 -12.24371,28.74609 -7.45269,16.50239 -16.50238,33.53711 -5.85569,10.11436 -13.30838,22.35807 -6.92035,11.71137 -15.43771,21.2934 -8.51737,9.58203 -18.0994,14.90538 -9.58203,5.32335 -19.69639,1.06467 -15.43772,-7.98503 -22.89041,-20.76107 -6.92035,-12.77604 -7.98502,-26.08441 -12.77604,14.37304 -27.68142,26.08441 -14.37305,11.71137 -31.40777,15.97005 -4.25868,1.06467 -8.51736,1.59701 -4.25868,0.53233 -7.45269,0.53233 -22.35807,0 -33.53711,-15.97005 -10.6467,-15.43771 -10.6467,-38.86045 0,-10.6467 2.12934,-21.2934 2.12934,-11.17904 6.38802,-21.82574 5.32335,-12.24371 15.43772,-28.21376 10.11436,-15.97005 25.01974,-30.34309 14.90538,-14.37305 34.60178,-23.95508 19.6964,-9.58203 43.65147,-9.04969 10.11437,0.53233 18.09939,6.38802 8.51736,5.85568 14.37305,13.84071 5.85568,7.98502 8.51736,17.03472 2.66167,8.51736 2.12934,15.43771 0,2.66168 -3.72635,4.25868 -3.72634,1.59701 -7.98502,1.59701 -5.32335,0 -10.11437,-1.59701 -4.25868,-2.12934 -4.25868,-6.38802 0,-1.597 -1.06467,-4.79101 -1.06467,-3.72635 -3.19401,-6.92036 -1.597,-3.19401 -4.79101,-5.32335 -2.66168,-2.66167 -6.38802,-2.12934 -9.58203,0.53234 -19.16406,6.92036 -9.58203,5.85568 -18.63173,15.97005 -9.04969,9.58203 -17.03472,22.35807 -7.45269,12.2437 -12.77604,25.01974 -12.24371,28.7461 -12.24371,45.24848 0,13.84071 9.0497,13.84071 1.06467,0 4.25868,-1.06467 3.72635,-1.06467 6.38802,-2.12934 h -0.53233 q 17.03472,-11.17903 32.47243,-28.74609 15.43772,-17.56705 27.68142,-34.60178 2.12934,-6.92035 5.32335,-12.2437 3.19401,-5.32335 2.12934,-12.77604 z"
         style="font-style:normal;font-variant:normal;font-weight:normal;font-stretch:normal;font-size:532.33502197px;font-family:'Sweet Sensations Personal Use';-inkscape-font-specification:'Sweet Sensations Personal Use, Normal';font-variant-ligatures:normal;font-variant-caps:normal;font-variant-numeric:normal;font-feature-settings:normal;text-align:start;writing-mode:lr-tb;text-anchor:start;fill:#9b5977;fill-opacity:1;stroke-width:2.77257824"
         id="char2" />
      <path
         d="m 622.80054,510.78274 q -1.59701,8.51736 -3.72635,14.37304 -2.12934,5.32335 -5.32335,15.97005 7.98503,2.12934 14.90538,2.12934 7.45269,0 16.50239,2.66168 9.58203,3.72634 13.30837,11.17903 3.72635,7.45269 3.72635,16.50239 0,6.38802 -1.06467,12.2437 -1.06467,5.32335 -2.66168,10.11437 -8.51736,23.95508 -11.71137,33.53711 -2.66167,9.58203 -3.72634,12.2437 -3.19401,12.77604 -3.19401,17.56706 0.53233,4.25868 3.19401,3.19401 2.66167,-1.06467 6.92035,-5.85569 4.25868,-4.79101 8.51736,-11.17903 4.25868,-6.38802 7.98503,-12.24371 3.72634,-6.38802 5.85568,-9.58203 5.32335,-10.11436 10.6467,-20.22873 5.32335,-10.6467 9.58203,-19.6964 4.25868,-9.58203 7.45269,-17.56705 3.72635,-7.98503 5.85569,-12.77604 3.19401,-3.72635 6.92036,-4.25868 3.72634,-1.06467 6.92035,0.53233 3.19401,1.59701 4.79102,5.85569 2.12934,3.72634 1.06467,8.51736 -2.12934,5.32335 -5.85569,13.30837 -3.19401,7.98503 -7.45269,17.56706 -3.72634,9.04969 -8.51736,19.16406 -4.79102,10.11437 -9.58203,19.6964 -5.85569,10.6467 -13.30838,22.8904 -7.45269,12.24371 -15.97005,22.35807 -7.98502,10.11437 -17.56705,14.90538 -9.0497,5.32335 -19.16406,1.06467 -19.16406,-9.04969 -26.08442,-23.42274 -6.92035,-14.90538 -6.92035,-30.34309 0,-18.09939 5.85568,-35.13412 6.38802,-17.56705 10.6467,-36.19878 -9.58203,-0.53233 -18.63172,-2.66167 -9.0497,-2.66168 -16.50239,-7.98503 -6.92036,-5.32335 -11.71137,-13.30837 -4.25868,-8.51736 -4.25868,-20.22873 0,-6.38802 1.597,-13.84071 2.12934,-7.98503 5.85569,-15.43772 3.72634,-7.45269 9.58203,-13.30838 5.85569,-5.85568 14.37305,-8.51736 6.92035,-2.12934 13.30837,0.53234 6.38802,2.12934 10.6467,7.45269 4.25868,5.32335 6.38802,12.77604 2.12934,7.45269 0.53234,15.43772 z"
         style="font-style:normal;font-variant:normal;font-weight:normal;font-stretch:normal;font-size:532.33502197px;font-family:'Sweet Sensations Personal Use';-inkscape-font-specification:'Sweet Sensations Personal Use, Normal';font-variant-ligatures:normal;font-variant-caps:normal;font-variant-numeric:normal;font-feature-settings:normal;text-align:start;writing-mode:lr-tb;text-anchor:start;fill:#9b5977;fill-opacity:1;stroke-width:2.77257824"
         id="char3" />
      <path
         d="m 803.26198,571.46893 q -0.53233,-4.25868 3.19401,-5.85569 3.72635,-2.12934 9.0497,-2.12934 5.32335,0 10.11437,1.06467 5.32335,0.53234 7.98502,1.06467 7.45269,3.19401 10.11437,8.51736 2.66167,4.79102 2.66167,13.84071 0,10.6467 -2.12934,18.63173 -1.597,7.98503 -4.79101,17.56706 l -5.32335,17.56705 q -2.66168,12.24371 -2.66168,17.03472 0,4.25868 2.66168,2.66168 3.19401,-2.12934 7.45269,-7.45269 4.79101,-5.85569 10.6467,-13.84071 5.85568,-7.98503 11.71137,-16.50239 h -0.53234 q 11.71137,-21.82574 20.22873,-40.45746 9.0497,-19.16406 13.30838,-29.81076 3.19401,-3.72635 6.92035,-4.25868 3.72635,-1.06467 6.92036,0.53233 3.19401,1.59701 4.79101,5.32335 2.12934,3.72635 1.06467,8.51736 l -3.72634,9.0497 q -4.79102,11.71137 -12.24371,28.74609 -7.45269,16.50239 -16.50238,33.53711 -5.85569,10.11436 -13.30838,22.35807 -6.92035,11.71137 -15.43771,21.2934 -8.51736,9.58203 -18.09939,14.90538 -9.58203,5.32335 -19.6964,1.06467 -15.43772,-7.98503 -22.89041,-20.76107 -6.92035,-12.77604 -7.98502,-26.08441 -12.77604,14.37304 -27.68142,26.08441 -14.37305,11.71137 -31.40777,15.97005 -4.25868,1.06467 -8.51736,1.59701 -4.25868,0.53233 -7.45269,0.53233 -22.35807,0 -33.53711,-15.97005 -10.6467,-15.43771 -10.6467,-38.86045 0,-10.6467 2.12934,-21.2934 2.12934,-11.17904 6.38802,-21.82574 5.32335,-12.24371 15.43772,-28.21376 10.11437,-15.97005 25.01975,-30.34309 14.90538,-14.37305 34.60177,-23.95508 19.6964,-9.58203 43.65147,-9.04969 10.11437,0.53233 18.0994,6.38802 8.51736,5.85568 14.37304,13.84071 5.85569,7.98502 8.51736,17.03472 2.66168,8.51736 2.12934,15.43771 0,2.66168 -3.72634,4.25868 -3.72635,1.59701 -7.98503,1.59701 -5.32335,0 -10.11436,-1.59701 -4.25868,-2.12934 -4.25868,-6.38802 0,-1.597 -1.06468,-4.79101 -1.06467,-3.72635 -3.19401,-6.92036 -1.597,-3.19401 -4.79101,-5.32335 -2.66168,-2.66167 -6.38802,-2.12934 -9.58203,0.53234 -19.16406,6.92036 -9.58203,5.85568 -18.63173,15.97005 -9.04969,9.58203 -17.03472,22.35807 -7.45269,12.2437 -12.77604,25.01974 -12.2437,28.7461 -12.2437,45.24848 0,13.84071 9.04969,13.84071 1.06467,0 4.25868,-1.06467 3.72635,-1.06467 6.38802,-2.12934 h -0.53233 q 17.03472,-11.17903 32.47243,-28.74609 15.43772,-17.56705 27.68142,-34.60178 2.12934,-6.92035 5.32335,-12.2437 3.19401,-5.32335 2.12934,-12.77604 z"
         style="font-style:normal;font-variant:normal;font-weight:normal;font-stretch:normal;font-size:532.33502197px;font-family:'Sweet Sensations Personal Use';-inkscape-font-specification:'Sweet Sensations Personal Use, Normal';font-variant-ligatures:normal;font-variant-caps:normal;font-variant-numeric:normal;font-feature-settings:normal;text-align:start;writing-mode:lr-tb;text-anchor:start;fill:#9b5977;fill-opacity:1;stroke-width:2.77257824"
         id="char4" />
      <path
         d="m 929.95765,512.37974 q 3.72634,-2.66167 10.6467,0.53234 6.92035,3.19401 12.77604,8.51736 9.0497,-8.51736 19.6964,-13.84071 11.17903,-5.32335 22.8904,-6.38802 21.29341,-0.53234 29.27841,13.30837 8.5174,13.30838 8.5174,30.87543 0,12.77604 -3.194,25.01975 -2.6617,12.2437 -5.8557,21.2934 -5.3234,16.50238 -13.8407,34.06944 9.0497,-3.19401 17.567,-10.6467 8.5174,-7.98503 15.9701,-18.09939 7.4527,-10.6467 13.8407,-22.35807 6.9203,-12.24371 12.776,-24.48741 2.6617,-4.25868 6.388,-5.32335 4.2587,-1.06467 7.4527,1.06467 3.1941,1.597 4.7911,5.32335 2.1293,3.72634 1.597,9.04969 -7.4527,15.97005 -16.5024,32.47244 -8.5174,16.50239 -20.2288,30.3431 -11.7113,13.30837 -26.6167,22.35807 -14.9054,8.51736 -34.06945,9.04969 -12.2437,15.43772 -29.27842,26.61675 -16.50239,11.71137 -37.26346,12.77604 -17.03472,0.53234 -29.81076,-4.25868 -12.2437,-4.79101 -20.22873,-13.84071 -7.98502,-8.51736 -12.2437,-20.76106 -3.72635,-12.24371 -3.72635,-26.08442 0,-16.50238 4.79102,-33.00477 4.79101,-17.03472 13.84071,-32.47244 9.04969,-15.43771 21.82573,-28.21375 12.77604,-13.30838 28.21376,-22.89041 z m 28.21375,73.46223 q 1.06467,18.63173 6.38803,28.21376 5.85568,9.58203 20.76106,12.77604 5.85569,-8.51736 10.11437,-19.16406 4.79104,-10.6467 9.04974,-21.2934 2.1293,-4.79102 4.791,-14.90538 2.6616,-10.6467 2.6616,-21.82574 0,-9.04969 -3.194,-15.97005 -3.194,-6.92035 -12.24367,-6.92035 -7.45269,0 -14.90538,6.92035 -6.92036,6.92036 -12.24371,16.50239 -5.32335,9.58203 -8.51736,19.69639 -2.66168,9.58203 -2.66168,15.97005 z m 6.38803,69.20356 q -20.76107,-5.32335 -33.53711,-18.63173 -12.24371,-13.84071 -14.90538,-32.47244 -3.72635,7.98503 -5.85569,17.03473 -2.12934,9.04969 -2.12934,19.69639 0,15.43772 5.85569,21.82574 6.38802,5.85568 15.43771,5.85568 7.45269,0 16.50239,-3.72634 9.04969,-3.72635 17.03472,-9.58203 z"
         style="font-style:normal;font-variant:normal;font-weight:normal;font-stretch:normal;font-size:532.33502197px;font-family:'Sweet Sensations Personal Use';-inkscape-font-specification:'Sweet Sensations Personal Use, Normal';font-variant-ligatures:normal;font-variant-caps:normal;font-variant-numeric:normal;font-feature-settings:normal;text-align:start;writing-mode:lr-tb;text-anchor:start;fill:#9b5977;fill-opacity:1;stroke-width:2.77257824"
         id="char5" />
      <path
         d="m 1127.9861,557.62822 q -10.1143,7.98502 -16.5024,16.50238 -6.388,8.51736 -10.1143,15.43772 -3.194,6.92035 -4.7911,12.2437 -1.597,5.32335 -1.597,6.92036 l -4.2586,14.37305 q -3.7264,11.71137 -7.4527,27.14908 -3.7264,15.43772 -3.7264,27.68142 0,5.85569 0.5324,10.11437 0.5323,4.79101 2.6616,7.45269 -9.582,1.597 -19.6964,0 -9.582,-1.59701 -17.567,-6.38802 -7.985,-4.79102 -12.2437,-12.77604 -4.2587,-7.98503 -2.1294,-19.6964 2.1294,-8.51736 5.3234,-22.35807 3.7263,-13.84071 7.985,-29.27843 4.2587,-15.97005 8.5174,-30.87543 4.2587,-15.43771 7.4527,-27.68142 5.8557,-24.48741 14.373,-49.50715 9.0497,-25.55209 20.7611,-49.50716 12.2437,-23.95508 27.1491,-45.24848 14.9053,-21.82573 32.4724,-39.39279 14.9054,-13.84071 29.2784,-13.84071 11.1791,0 18.0994,9.58203 6.9204,9.0497 7.4527,22.89041 -1.597,23.42274 -9.0497,44.71614 -7.4527,21.2934 -19.164,39.39279 -11.1791,17.56705 -27.1491,30.87543 -15.4377,13.30838 -33.5371,20.22873 -1.0647,1.59701 -2.1294,4.79102 -1.0646,3.19401 -2.6617,6.92035 -1.0646,3.72635 -2.1293,6.92036 -1.0647,2.66167 -1.597,3.19401 9.0497,-7.45269 21.2934,-14.37305 12.2437,-6.92035 24.4874,-6.92035 14.3731,0 21.2934,9.04969 6.9204,9.0497 6.9204,24.48741 0,10.6467 -3.194,22.35807 -3.1941,11.17904 -10.1144,22.35807 -6.388,10.6467 -16.5024,19.6964 -9.582,9.0497 -22.8904,14.37305 h 1.0647 q 1.597,1.06467 4.791,4.25868 3.7263,2.66167 8.5173,5.85568 5.3234,2.66168 10.6467,4.79102 5.8557,2.12934 11.1791,2.12934 6.9203,0 13.8407,-4.79102 6.9203,-5.32335 13.8407,-19.16406 9.0497,-17.56706 18.6317,-36.73112 9.5821,-19.16406 15.4377,-31.40776 2.1294,-3.72635 5.8557,-4.25868 4.2587,-1.06467 7.4527,1.06467 3.7264,1.597 5.8557,5.32335 2.6617,3.19401 1.0647,7.98502 -3.7264,10.6467 -12.7761,30.3431 -9.0497,19.16406 -18.6317,38.86046 l -4.2587,5.85568 h 0.5324 q -4.7911,7.98503 -11.1791,19.6964 -6.388,11.17903 -14.373,20.22873 -7.985,9.58203 -17.5671,14.37304 -9.0497,5.32335 -19.164,1.06467 -12.2437,-5.32335 -23.4228,-14.37304 -11.179,-8.51736 -19.6964,-18.63173 -8.5173,-10.6467 -13.3083,-21.2934 -4.7911,-10.6467 -3.7264,-19.69639 1.597,-6.38802 6.9204,-11.17904 5.8556,-6.92036 11.179,-12.24371 5.8557,-5.85568 10.6467,-10.11436 6.9204,-6.38802 12.2437,-11.71137 5.3234,-5.32335 6.388,-9.58203 4.2587,-11.71137 -1.597,-13.30838 -5.3233,-1.597 -11.7113,4.79102 z m 54.8305,-160.23284 q -14.373,21.82573 -27.6814,44.1838 -13.3084,22.35807 -23.9551,47.37782 18.0994,-14.37305 32.4725,-38.32812 14.373,-23.95508 21.8257,-50.57183 1.0647,-2.12934 1.0647,-4.79101 0.5323,-2.66168 0.5323,-3.72635 -0.5323,0 -3.7263,5.85569 z"
         style="font-style:normal;font-variant:normal;font-weight:normal;font-stretch:normal;font-size:532.33502197px;font-family:'Sweet Sensations Personal Use';-inkscape-font-specification:'Sweet Sensations Personal Use, Normal';font-variant-ligatures:normal;font-variant-caps:normal;font-variant-numeric:normal;font-feature-settings:normal;text-align:start;writing-mode:lr-tb;text-anchor:start;fill:#9b5977;fill-opacity:1;stroke-width:2.77257824"
         id="char6" />
      <path
         d="m 1282.8954,508.12106 q 14.9054,-6.92035 30.3431,-6.92035 10.6467,0 21.2934,3.19401 10.6467,3.19401 18.6317,9.58203 7.985,6.38802 12.2437,16.50238 4.791,9.58203 3.194,22.89041 -5.3233,29.27842 -21.2934,45.78081 -15.97,16.50239 -37.7958,26.08442 -15.4377,6.92035 -30.8754,11.17903 -15.4377,4.25868 -28.2138,6.38802 1.0647,10.6467 7.9851,18.63173 6.9203,7.45269 17.0347,7.45269 17.567,0 34.6018,-9.58203 17.567,-10.11437 32.4724,-25.55208 15.4377,-15.97005 28.2137,-36.19879 12.7761,-20.22873 21.2935,-40.98979 2.1293,-5.32335 5.8556,-6.92036 4.2587,-2.12934 7.4527,-1.06467 3.7264,1.06467 5.8557,4.79102 2.6617,3.72634 1.597,9.04969 -3.194,21.2934 -15.97,44.71614 -12.7761,23.42275 -32.4725,43.11914 -19.6964,19.6964 -45.2484,33.00477 -25.5521,13.30838 -54.8306,14.37305 -34.6017,1.06467 -52.7011,-18.63173 -18.0994,-19.16406 -13.8407,-53.76583 2.1293,-19.6964 9.582,-37.79579 7.985,-18.63173 19.6964,-33.53711 11.7114,-15.43771 26.0844,-27.14908 14.3731,-11.71137 29.8108,-18.63173 z m 16.5024,93.69096 q 7.4526,-3.72634 14.9053,-9.04969 7.4527,-5.32335 12.7761,-11.71137 5.8557,-6.92036 9.0497,-14.37305 3.194,-7.98502 3.194,-15.97005 -0.5324,-12.77604 -10.1144,-15.43771 -9.0497,-2.66168 -21.2934,6.38802 -22.3581,15.43771 -34.0694,33.00477 -11.1791,17.56705 -18.0994,40.9898 11.179,-2.12934 22.3581,-5.85569 11.7113,-3.72635 21.2934,-7.98503 z"
         style="font-style:normal;font-variant:normal;font-weight:normal;font-stretch:normal;font-size:532.33502197px;font-family:'Sweet Sensations Personal Use';-inkscape-font-specification:'Sweet Sensations Personal Use, Normal';font-variant-ligatures:normal;font-variant-caps:normal;font-variant-numeric:normal;font-feature-settings:normal;text-align:start;writing-mode:lr-tb;text-anchor:start;fill:#9b5977;fill-opacity:1;stroke-width:2.77257824"
         id="char7" />
    </g>
  </g>
</svg>
