<svg height='300px' width='300px'  fill="#000000" xmlns="http://www.w3.org/2000/svg" xmlns:xlink="http://www.w3.org/1999/xlink" version="1.1" x="0px" y="0px" viewBox="0 0 153.503 205.011" style="enable-background:new 0 0 153.503 205.011;" xml:space="preserve"><g><ellipse transform="matrix(0.4155 -0.9096 0.9096 0.4155 49.1549 121.4921)" cx="119.107" cy="22.5" rx="22.495" ry="22.495"></ellipse><path d="M107.892,145.827c5.322,4.607,10.378,10.268,14.019,16.867c3.638,6.629,5.959,14.115,5.977,23.203   c0,1.691-0.084,3.453-0.262,5.291c-0.64,6.594,4.19,12.461,10.787,13.1c0.395,0.039,0.787,0.057,1.175,0.057   c6.104,0,11.324-4.641,11.928-10.842c0.249-2.576,0.373-5.113,0.373-7.605c0.02-13.789-3.843-25.883-9.493-35.738   c-7.058-12.303-16.627-21.277-25.337-27.693l2.96-14.627c-3.17-0.562-8.021-1.449-10.159-2.549   c-2.958-1.533-5.786-3.521-8.651-6.082c-2.241-2.014-4.039-3.971-5.368-5.544l-14.782,8.853c0.026,1.877-0.477,3.736-1.457,5.354   c-0.725,1.195-1.702,2.262-2.933,3.094c-1.404,0.949-3.009,1.494-4.68,1.648c-0.304,0.027-0.605,0.066-0.913,0.066h-0.002   c-0.417,0-0.83-0.025-1.237-0.078l-0.315,2.898l-41.645,48.732l-0.281,1.121l-0.278-0.465L9.943,185.216   c-4.304,5.039-3.711,12.611,1.328,16.918c2.261,1.932,5.032,2.877,7.79,2.877c3.388,0,6.755-1.426,9.129-4.205l58.536-68.498   C90.462,133.99,99.476,138.499,107.892,145.827z"></path><path d="M138.826,86.7l0.007-1.896l0.069-16.929l-12.284,7.357l-0.448,0.268l-12.824,7.68c2.184,2.16,6.823,6.271,10.229,7.085   l2.854-14.104c1.054,2.729,1.655,5.538,1.639,7.705c0,1.669-0.312,2.894-0.75,3.732c-0.463,0.838-0.972,1.462-2.298,2.206   c-0.539,0.288-1.002,0.456-1.443,0.562l-0.004,0.035c-0.009,0.001-0.018,0.002-0.026,0.003c-0.106,0.014-0.213,0.02-0.32,0.037   v-0.002c-0.286,0.047-0.575,0.07-0.884,0.072c-1.13,0.007-2.584-0.366-4.232-1.22c-2.271-1.151-4.702-3.189-6.53-5.054   c-0.153-0.157-0.31-0.314-0.455-0.468c-0.342-0.359-0.649-0.7-0.939-1.027c-0.506-0.57-0.937-1.085-1.253-1.482   c-0.249-0.31-0.433-0.552-0.546-0.704c-0.056-0.075-0.095-0.127-0.114-0.154l-0.001,0.001c-0.405-0.576-0.879-1.073-1.394-1.506   c-0.583-0.491-1.225-0.889-1.905-1.19c-2.485-1.099-5.465-0.913-7.848,0.769c-2.035,1.435-3.197,3.646-3.368,5.949   c-0.056,0.745-0.006,1.499,0.15,2.24c0.218,1.032,0.643,2.039,1.289,2.956c0.077,0.104,0.454,0.637,1.093,1.445   c0.35,0.442,0.778,0.969,1.284,1.559c1.229,1.434,2.899,3.234,4.967,5.091c2.247,2.012,4.964,4.102,8.233,5.795   c2.745,1.412,5.951,2.561,9.535,2.893c0.575,0.053,1.159,0.088,1.753,0.096c0.095,0,0.187,0.01,0.281,0.01   c0.917,0,1.856-0.076,2.805-0.201c0.234-0.018,0.47-0.045,0.707-0.084c2.276-0.379,4.578-1.16,6.756-2.338   c3.949-2.098,7.068-5.314,8.914-8.93c1.34-2.592,2.06-5.301,2.364-7.965l-3.171-0.184L138.826,86.7z"></path><path d="M64.424,110.148c-0.616-0.547-1.17-1.174-1.642-1.875c-0.483-0.713-0.939-1.424-1.393-2.133l-29.011,17.373L0,115.39   l3.635,6.068l26.107,6.547l-6.549,26.109l3.634,6.068l8.124-32.383L64.424,110.148z"></path><path d="M93.627,90.863l-0.008-0.011l-0.059-0.079c-0.67-0.95-1.139-1.981-1.438-3.04l-13.571,8.128   c0.261,0.402,0.524,0.807,0.803,1.219c0.692,1.025,1.156,2.135,1.427,3.273l13.78-8.253C94.166,91.594,93.847,91.167,93.627,90.863   z"></path><path d="M109.988,79.36c0.105,0.139,0.274,0.364,0.506,0.651c0.329,0.413,0.816,1.001,1.437,1.686l13.414-8.034l1.81-1.084   l11.947-7.155l1.817-1.088l-0.02,4.907l-0.066,15.572l3.21,0.184l2.445,0.141l4.172-37.607c1.604-1.377,2.691-3.458,2.828-5.847   c0.254-4.412-2.818-8.179-6.862-8.411c-4.039-0.232-7.524,3.157-7.776,7.571c-0.137,2.389,0.705,4.582,2.142,6.132l-0.048,11.517   l-4.382,2.625l-8.066,4.83l-5.681,3.402l-14.152,8.476c0.451,0.435,0.876,0.902,1.244,1.423L109.988,79.36z"></path><path d="M63.1,105.115c0.433,0.678,0.877,1.357,1.34,2.041c0.508,0.752,1.129,1.379,1.814,1.896c0.624,0.471,1.3,0.854,2.019,1.121   c0.575,0.213,1.172,0.357,1.779,0.436c0.339,0.045,0.681,0.07,1.023,0.07c1.541,0,3.099-0.445,4.472-1.373   c1.963-1.326,3.141-3.373,3.437-5.549c0.105-0.766,0.1-1.545-0.021-2.316c-0.175-1.127-0.586-2.234-1.267-3.24   c-0.3-0.445-0.579-0.877-0.86-1.313c-0.371-0.572-0.726-1.137-1.065-1.693c-1.353-2.212-2.463-4.291-3.363-6.24   c-1.709-3.7-2.671-6.933-3.115-9.715c-0.219-1.368-0.32-2.633-0.318-3.786c0.051-6.117,2.456-9.923,5.644-12.846   c0.233-0.208,0.479-0.392,0.72-0.585l-2.48,22.794c0.993,2.709,2.468,5.821,4.625,9.353l14.284-8.555   c-0.195-3.341,1.275-6.707,4.205-8.775c1.695-1.196,3.686-1.828,5.756-1.828c1.877,0,3.681,0.542,5.238,1.5l14.614-8.753   l7.453-4.463l6.384-3.823c-0.961-1.306-1.977-2.522-3.053-3.634c-1.792-1.76-3.605-3.391-6.295-4.509   c-0.704-0.405-1.48-0.711-2.321-0.881l-37.867-7.664c-0.646-0.13-1.286-0.167-1.915-0.136c-0.397-0.029-0.791-0.052-1.177-0.052   c-3.202,0.023-6.23,0.795-9.411,2.111c-4.712,1.997-9.661,5.363-13.642,10.488c-3.974,5.095-6.791,12.086-6.763,20.257   c0.002,3.453,0.483,7.069,1.483,10.845c1.422,5.375,3.91,11.081,7.587,17.116C62.388,103.98,62.734,104.546,63.1,105.115z"></path></g></svg>