<?xml version="1.0" encoding="iso-8859-1"?>
<!-- Generator: Adobe Illustrator 19.0.0, SVG Export Plug-In . SVG Version: 6.00 Build 0)  -->
<svg version="1.1" id="Capa_1" xmlns="http://www.w3.org/2000/svg" xmlns:xlink="http://www.w3.org/1999/xlink" x="0px" y="0px"
	 viewBox="0 0 512 512" style="enable-background:new 0 0 512 512;" xml:space="preserve">
<path style="fill:#D84C8B;" d="M512,256c0,141.385-114.615,256-256,256c-45.004,0-87.291-11.609-124.029-32.005
	c-27.585-15.297-52.057-35.558-72.182-59.57c-10.501-12.497-19.822-26.028-27.794-40.396C11.609,343.28,0,300.993,0,256
	C0,114.615,114.615,0,256,0S512,114.615,512,256z"/>
<path style="fill:#E5619C;" d="M460.419,204.419c0,112.897-91.522,204.419-204.419,204.419c-35.936,0-69.703-9.269-99.039-25.556
	c-22.027-12.215-41.568-28.393-57.638-47.567c-8.385-9.979-15.828-20.784-22.194-32.256c-16.278-29.345-25.548-63.111-25.548-99.039
	C51.581,91.522,143.103,0,256,0S460.419,91.522,460.419,204.419z"/>
<circle style="fill:#FCFCFC;" cx="359.058" cy="152.942" r="132.253"/>
<path style="fill:#E0E0E0;" d="M292.12,267.03c-9.493-5.564-18.436-12.432-26.578-20.574c-51.647-51.647-51.647-135.391,0-187.038
	s135.391-51.647,187.038,0c8.142,8.142,15.01,17.085,20.574,26.578C422.473,56.204,356.2,63.065,312.694,106.57
	S262.328,216.349,292.12,267.03z"/>
<path style="fill:#515878;" d="M359.058,285.194l-227.088,194.8c-27.585-15.297-52.057-35.558-72.182-59.57
	c-10.501-12.497-19.822-26.028-27.794-40.396l194.811-227.088L359.058,285.194z"/>
<path style="fill:#343B5E;" d="M461.224,255.1c-2.821,2.821-6.522,4.228-10.216,4.228s-7.395-1.406-10.216-4.228L256.898,71.206
	c-5.642-5.642-5.642-14.791,0-20.433c2.821-2.821,6.523-4.228,10.216-4.228c3.694,0,7.395,1.406,10.216,4.228l183.895,183.895
	C466.867,240.31,466.867,249.458,461.224,255.1z"/>
<path style="fill:#515878;" d="M461.224,255.1c-2.821,2.821-6.522,4.228-10.216,4.228s-7.395-1.406-10.216-4.228L291.476,105.784
	c-5.642-5.642-5.642-14.791,0-20.433c2.821-2.821,6.523-4.228,10.216-4.228c3.694,0,7.395,1.406,10.216,4.228l149.316,149.316
	C466.867,240.31,466.867,249.458,461.224,255.1z"/>
<g>
	<path style="fill:#343B5E;" d="M273.962,200.088v0.01L59.789,420.425c-10.501-12.497-19.822-26.028-27.794-40.396l194.811-227.088
		L273.962,200.088z"/>
	<circle style="fill:#343B5E;" cx="329.3" cy="76.288" r="10.929"/>
	<circle style="fill:#343B5E;" cx="355.924" cy="102.902" r="10.929"/>
	<circle style="fill:#343B5E;" cx="382.537" cy="129.526" r="10.929"/>
	<circle style="fill:#343B5E;" cx="409.161" cy="156.15" r="10.929"/>
	<circle style="fill:#343B5E;" cx="435.775" cy="182.763" r="10.929"/>
	
		<ellipse transform="matrix(0.7071 -0.7071 0.7071 0.7071 -11.8423 386.4083)" style="fill:#343B5E;" cx="460.515" cy="207.499" rx="10.928" ry="8.266"/>
	
		<ellipse transform="matrix(0.7071 -0.7071 0.7071 0.7071 52.9603 229.956)" style="fill:#343B5E;" cx="304.062" cy="51.049" rx="10.928" ry="8.965"/>
	<circle style="fill:#343B5E;" cx="406.329" cy="52.496" r="10.929"/>
	<circle style="fill:#343B5E;" cx="432.953" cy="79.12" r="10.929"/>
	<circle style="fill:#343B5E;" cx="459.567" cy="105.733" r="10.929"/>
	
		<ellipse transform="matrix(0.7071 -0.7071 0.7071 0.7071 73.0624 254.0276)" style="fill:#343B5E;" cx="343.17" cy="38.82" rx="10.928" ry="8.727"/>
	<circle style="fill:#343B5E;" cx="368.232" cy="63.875" r="10.929"/>
	<circle style="fill:#343B5E;" cx="394.856" cy="90.499" r="10.929"/>
	<circle style="fill:#343B5E;" cx="421.48" cy="117.112" r="10.929"/>
	<circle style="fill:#343B5E;" cx="448.094" cy="143.736" r="10.929"/>
	
		<ellipse transform="matrix(0.7071 -0.7071 0.7071 0.7071 19.2825 383.8748)" style="fill:#343B5E;" cx="473.019" cy="168.661" rx="10.928" ry="8.534"/>
	<circle style="fill:#343B5E;" cx="387.897" cy="228.665" r="10.929"/>
	<circle style="fill:#343B5E;" cx="361.284" cy="202.052" r="10.929"/>
	<circle style="fill:#343B5E;" cx="334.66" cy="175.428" r="10.929"/>
	<circle style="fill:#343B5E;" cx="308.036" cy="148.804" r="10.929"/>
	<circle style="fill:#343B5E;" cx="281.422" cy="122.19" r="10.929"/>
	
		<ellipse transform="matrix(-0.7071 0.7071 -0.7071 -0.7071 507.0983 -15.1385)" style="fill:#343B5E;" cx="256.684" cy="97.454" rx="10.928" ry="8.266"/>
	
		<ellipse transform="matrix(-0.7071 0.7071 -0.7071 -0.7071 884.8022 141.2995)" style="fill:#343B5E;" cx="413.137" cy="253.898" rx="10.928" ry="8.965"/>
	
		<ellipse transform="matrix(-0.7071 0.7071 -0.7071 -0.7071 826.7054 189.8492)" style="fill:#343B5E;" cx="374.034" cy="266.141" rx="10.928" ry="8.727"/>
	<circle style="fill:#343B5E;" cx="348.965" cy="241.079" r="10.929"/>
	<circle style="fill:#343B5E;" cx="322.341" cy="214.455" r="10.929"/>
	<circle style="fill:#343B5E;" cx="295.727" cy="187.831" r="10.929"/>
	<circle style="fill:#343B5E;" cx="269.103" cy="161.217" r="10.929"/>
	
		<ellipse transform="matrix(-0.7071 0.7071 -0.7071 -0.7071 513.2053 59.9971)" style="fill:#343B5E;" cx="244.177" cy="136.287" rx="10.928" ry="8.534"/>
	<path style="fill:#343B5E;" d="M193.241,318.755L193.241,318.755c-7.526-7.526-7.526-19.73,0-27.257l46.898-46.898
		c7.526-7.526,19.73-7.526,27.257,0l0,0c7.526,7.526,7.526,19.73,0,27.257l-46.898,46.898
		C212.972,326.283,200.769,326.283,193.241,318.755z"/>
</g>
<path style="fill:#FCFCFC;" d="M259.538,263.997l-46.901,46.9c-3.183,3.183-8.354,3.183-11.537,0c-3.183-3.183-3.183-8.354,0-11.537
	l46.901-46.901c3.183-3.183,8.354-3.183,11.537,0C262.721,255.643,262.721,260.814,259.538,263.997z"/>
<path style="fill:#6693C4;" d="M259.538,263.997l-21.257,21.257l-11.538-11.537L248,252.46c3.183-3.183,8.354-3.183,11.537,0
	C262.721,255.643,262.721,260.814,259.538,263.997z"/>
<g>
</g>
<g>
</g>
<g>
</g>
<g>
</g>
<g>
</g>
<g>
</g>
<g>
</g>
<g>
</g>
<g>
</g>
<g>
</g>
<g>
</g>
<g>
</g>
<g>
</g>
<g>
</g>
<g>
</g>
</svg>
