<?xml version="1.0" standalone="no"?>
<!DOCTYPE svg PUBLIC "-//W3C//DTD SVG 20010904//EN"
 "http://www.w3.org/TR/2001/REC-SVG-20010904/DTD/svg10.dtd">
<svg version="1.0" xmlns="http://www.w3.org/2000/svg"
 width="1280.000000pt" height="1279.000000pt" viewBox="0 0 1280.000000 1279.000000"
 preserveAspectRatio="xMidYMid meet">
<g transform="translate(0.000000,1279.000000) scale(0.100000,-0.100000)"
fill="#000000" stroke="none">
<path d="M6040 12779 c-25 -5 -174 -23 -333 -39 -404 -43 -647 -88 -1027 -192
-1561 -424 -2974 -1507 -3789 -2903 -489 -836 -781 -1779 -855 -2753 -45 -598
-46 -553 7 -1057 51 -477 53 -498 88 -680 150 -788 490 -1620 942 -2300 395
-595 914 -1140 1521 -1599 640 -484 1475 -873 2300 -1071 258 -62 530 -106
951 -152 275 -31 714 -43 818 -23 32 6 142 15 245 20 305 14 735 85 1127 185
844 215 1681 638 2385 1204 1093 879 1856 2075 2185 3426 80 325 125 610 172
1080 24 231 24 718 0 935 -9 85 -24 223 -32 305 -79 728 -309 1472 -674 2180
-836 1621 -2313 2792 -4086 3238 -390 98 -658 140 -1180 184 -219 19 -693 26
-765 12z m720 -614 c1010 -63 1990 -389 2835 -942 744 -488 1388 -1175 1828
-1949 314 -553 551 -1188 662 -1775 42 -224 105 -881 105 -1101 0 -121 -4
-189 -11 -193 -18 -12 -46 24 -94 116 -76 147 -135 324 -255 760 -124 451
-205 656 -338 855 -91 135 -179 214 -304 273 -128 61 -271 114 -391 146 -121
32 -511 100 -662 115 -66 7 -131 18 -145 25 -14 7 -59 40 -99 74 -97 78 -125
91 -204 91 -102 0 -160 16 -240 64 -150 91 -158 92 -246 26 -29 -22 -61 -40
-71 -40 -10 0 -41 27 -70 60 -69 80 -110 104 -162 97 -47 -6 -75 -30 -124
-108 -20 -31 -48 -63 -62 -71 -27 -14 -24 -14 -327 -6 -229 5 -264 13 -380 81
-105 62 -199 74 -299 37 -219 -83 -263 -415 -79 -611 80 -86 224 -144 337
-137 53 3 69 10 122 47 53 37 66 42 94 36 48 -11 143 -111 219 -232 69 -110
154 -204 211 -233 19 -9 124 -34 234 -55 109 -20 220 -43 247 -51 64 -19 412
-189 519 -254 47 -28 100 -65 118 -83 63 -61 147 -259 226 -532 72 -247 115
-483 157 -860 11 -99 33 -272 49 -383 17 -112 30 -244 30 -293 0 -49 7 -135
16 -192 8 -56 16 -178 17 -272 2 -210 -4 -230 -73 -229 -50 1 -267 79 -419
150 -103 48 -244 134 -331 200 -55 42 -209 194 -250 247 -12 15 -85 84 -162
153 -77 69 -177 167 -221 217 -47 54 -131 132 -204 189 -68 54 -180 146 -248
205 -112 96 -134 111 -227 149 -57 23 -155 67 -218 98 -175 85 -168 84 -680
72 -514 -13 -569 1 -815 198 -38 31 -101 75 -138 97 -37 22 -83 54 -101 69
-73 65 -119 241 -98 379 19 129 78 224 170 274 71 38 267 78 437 87 164 9 219
26 281 85 49 47 74 117 74 206 0 48 -5 64 -33 105 -59 86 -68 112 -83 241 -17
148 -32 182 -107 246 -91 77 -100 121 -83 382 l8 120 -36 92 c-20 51 -36 103
-36 116 0 13 18 60 40 106 56 115 54 146 -7 213 -28 29 -121 99 -219 163 -98
65 -183 128 -199 149 -15 19 -44 85 -66 146 -66 187 -80 206 -286 395 -108 98
-167 223 -234 490 -80 322 -115 399 -255 574 -107 133 -130 148 -215 138 -26
-3 -75 -20 -108 -36 l-60 -31 -88 21 c-94 23 -259 36 -316 25 -51 -10 -84 -49
-107 -127 -12 -38 -30 -78 -42 -88 -11 -11 -73 -40 -137 -65 -151 -59 -188
-82 -416 -260 -104 -81 -237 -176 -295 -209 -78 -45 -127 -84 -191 -147 -124
-125 -275 -305 -314 -375 -71 -127 -120 -285 -146 -470 -25 -184 -13 -728 22
-916 28 -153 39 -184 126 -346 74 -138 85 -154 217 -292 173 -183 251 -279
288 -356 33 -71 35 -106 8 -211 -33 -131 -66 -184 -231 -369 -194 -218 -273
-319 -305 -392 -43 -95 -81 -205 -89 -253 -14 -91 -26 -103 -189 -205 -181
-113 -281 -191 -401 -316 -120 -124 -173 -208 -255 -397 -37 -86 -91 -206
-119 -267 -29 -60 -74 -173 -101 -250 -26 -77 -91 -253 -143 -391 -52 -138
-140 -394 -195 -570 -139 -438 -146 -459 -165 -459 -29 0 -80 81 -196 315
-167 336 -264 577 -371 925 -130 422 -185 729 -234 1300 -22 253 -23 304 -15
525 17 481 63 817 174 1265 264 1067 784 1977 1571 2745 623 608 1320 1037
2138 1316 749 255 1492 357 2256 309z m4425 -4070 c38 -17 81 -58 152 -148 31
-40 89 -106 128 -147 123 -130 188 -292 336 -835 44 -165 94 -339 110 -387 38
-113 123 -294 196 -416 70 -118 72 -134 44 -408 -33 -324 -80 -574 -166 -889
-88 -322 -253 -766 -298 -804 -21 -16 -8 -51 -113 309 -47 162 -139 459 -204
660 -65 201 -128 403 -140 450 -12 47 -52 189 -90 315 -38 127 -116 393 -174
592 -112 384 -190 634 -225 720 -11 28 -25 82 -31 120 -22 131 -80 329 -136
463 -103 248 -143 382 -123 406 18 21 42 22 379 17 234 -4 333 -9 355 -18z
m-2030 -4819 c19 -8 54 -28 77 -44 167 -114 1134 -473 1477 -549 46 -10 86
-24 88 -31 19 -49 -453 -521 -787 -787 -345 -275 -748 -524 -1145 -708 -418
-194 -823 -331 -849 -288 -12 19 -56 554 -56 680 0 75 7 255 16 401 8 146 19
440 23 653 7 308 11 392 22 402 32 29 220 107 272 112 70 7 104 -4 257 -88
146 -79 203 -97 259 -80 53 15 115 86 181 205 35 63 66 105 85 117 36 23 37
23 80 5z"/>
</g>
</svg>
